<svg xmlns="http://www.w3.org/2000/svg" viewBox="0 0 594.5 536.53"><defs><style>.cls-1{fill:#fdfdfd;}.cls-2{fill:#4f6733;}.cls-3{fill:#526a36;}.cls-4{fill:#5f1115;}</style></defs><title>Terradina final</title><g id="Layer_2" data-name="Layer 2"><g id="Layer_1-2" data-name="Layer 1"><path class="cls-1" d="M0,536.53V0H594.5V536.53ZM386.74,420.89l-.74-.64a16.45,16.45,0,0,1,2.46-1.49c8.28-3.19,16.55-6.45,24.91-9.44,7-2.49,14.05-4.75,21.67-3.39.28.05.64-.28,1.71-.78-10.26-4.28-20.16-4.65-30.19-3s-19.21,5.5-25.34,14.92c-.29-.94-.43-1.32-.53-1.72-.74-2.93-2.07-5.94-5.18-6.23s-4.47,2.88-5.67,5.38-.52,4.52,1.92,6c.95.58,1.95,1.09,3.5,1.94l-3.19,1.89a84,84,0,0,0-5.89-6.79,3.91,3.91,0,0,0-3.48-.45c-3.36,1.56-4.88,7.76-2.72,10.71a18.13,18.13,0,0,0,3,2.57l-3.89,1.94a14.59,14.59,0,0,0-1-3.63,25.29,25.29,0,0,0-3.65-4.7,2.71,2.71,0,0,0-2.57,0c-5,3.31-5.76,7.68-2.22,12.58l-3.41,1.61c-.27-4.43-1.62-7.51-4.27-9.76a3.29,3.29,0,0,0-2.21-.91c-3,.48-7.41,6.29-6.72,9.2.43,1.81,1.79,3.39,2.86,5.29l-5.58,1.53c1.54-4.81,1.07-8.62-2.09-11.93-1.42-1.49-2.85-1.84-4.49-.48-1.89,1.58-3.82,3.13-5.62,4.8a4.94,4.94,0,0,0-.32,7.41,9.93,9.93,0,0,0,2.78,1.47c-.3.45-.61.89-.91,1.33l-6.43.65c.45-1.24.76-1.92.93-2.63,1-4.1.46-7.95-2.49-11.1-.68-.72-2.5-1.29-3.24-.9a54.67,54.67,0,0,0-8.61,5.54c-2.47,2-2.46,5.14-.56,7.8.47.66.94,1.33,1.81,2.53l-7.55.55-.44-.66c3.82-3.91,3.47-8.06,1.33-12.47-1.06-2.19-2.44-3-4.57-1.88a72.23,72.23,0,0,0-8.54,5c-2.26,1.62-2.51,4.48-1.08,7,.51.89,1.17,1.69,2.06,3l-9.08-.71-.37-.69a10,10,0,0,0,6.09-7.84,14.26,14.26,0,0,0-1.11-7.21c-.2-.52-3.36-.35-4.91.2-3.91,1.41-7.68,3.21-11.57,4.88.3-.58.72-1.27,1-2a18.74,18.74,0,0,0,1-2.71c.82-3.09.27-3.8-2.81-3.46-2.87.33-5.75.7-8.59,1.26-7.52,1.49-9.77,4-10.35,11.91l-11.47-4c11.54-2.4,19.27-7.74,20.16-14.55a11,11,0,0,0-2.12-.35c-4.07.09-8.21-.2-12.18.5a31.59,31.59,0,0,0-11,3.87c-1.86,1.16-2.38,4.44-3.65,7.08l-10.65-5.82c10.43-.64,19.67-2.8,25.67-12.39a41.77,41.77,0,0,0-10.07-1.26,78.45,78.45,0,0,0-13.95,1.5,7,7,0,0,0-5.9,6.76c0,.75-.63,1.48-1.23,2.81l-11-9c12.41,1.55,22.93-1.53,32.53-9.53-.91-.71-1.2-1.12-1.56-1.2-8.08-1.64-16.18-3.88-24.43-1.43a29.74,29.74,0,0,0-7.79,4c-1.19.81-1.77,2.51-3,4.36l-9.29-11.41.58-1c6.13,3.16,12.65,3.39,19.15,2.68s12.79-2.4,18.16-7.09a12,12,0,0,0-2.06-1.22c-7.64-2.48-15.28-4.88-23.49-4.67-3.87.09-7.5.64-10.69,2.85a47.44,47.44,0,0,0-4.32,3.87c-.93-1.68-1.86-3.09-2.53-4.61-1.46-3.3-1.4-3.32-5.31-2.05l5.07,10.33c-1.35,0-2.37,0-3.39,0-7.66-.12-14.67,4.28-16,10.93-.93,4.63-.67,9.51-.83,14.28-.08,2.48,1.51,2.7,3.21,1.73,4.55-2.6,9.16-5.16,13.45-8.16a28.3,28.3,0,0,0,6.23-6.41c1.1-1.5,1.36-3.62,2.13-5.82L188,416.5c-2.12.27-3.6.36-5,.67-5.33,1.12-9.55,3.71-11.61,9.05s-1.45,10.49-.37,15.8c.41,2,1.29,2.61,3.12,1.61,9-4.92,18-9.89,19.82-21.84l9.4,6.8a46.07,46.07,0,0,0-5.29,1.81c-5.41,2.61-9.66,6.28-9.21,12.92a76.74,76.74,0,0,0,2,11.92c.7,3,2.09,3.51,4.54,1.46a76.93,76.93,0,0,0,10-9.45c3.15-3.77,6.45-7.82,5.09-13.46,0-.12.22-.32.49-.67l9.46,4.78c-1,.51-1.72.9-2.47,1.25-3.57,1.68-6.35,4.2-7.2,8.13-.5,2.32-.87,5-.2,7.16A83.54,83.54,0,0,0,216,467.72c1.23,2.42,2.31,2.25,4.12.12a60.62,60.62,0,0,0,5.64-7c3.55-5.69,6.85-11.56,3.24-18.57-.05-.1.16-.33.35-.68l10.89,3.19c-.89.71-1.35,1.1-1.83,1.46-4.8,3.58-6.38,7.67-4.68,13.48,1.6,5.51,5.47,9.63,9.44,13.55.46.46,2.43.37,2.6,0A116.11,116.11,0,0,0,251.71,460c1.47-4.34-.27-8.49-2.63-12.65l13,2.25c-3.36,3.23-5.63,6.44-4.81,10.59a21.86,21.86,0,0,0,2.9,7,27.57,27.57,0,0,0,9.76,9.57c1.66-3.54,3.13-6.7,4.61-9.86s2.12-6.29.25-9.5c-1.2-2.07-2.42-4.14-3.83-6.53l12,.77c-3.38,3.81-4.62,7.72-2.31,12.07a26,26,0,0,0,11.53,10.86c.77.4,2.92-.11,3.16-.71,2.14-5.41,4.22-11,.78-16.61-1.22-2-3.12-3.57-5-5.64h12.12c-2.64,6-2.48,8.64,1.77,12.65,2.2,2.08,5.13,3.47,7.89,4.86,2.39,1.2,5,2,7.61,3,2.2-11.26-.43-16.3-11-21.26l12-2c-.12,5.21,2,8.79,6.13,10.55a115.67,115.67,0,0,0,13.69,4.44c2.77.78,3.45-.14,2.77-3-1.41-6-5.64-9.38-10.88-11.84-1.07-.51-2.18-.93-3.26-1.4l.18-.57,8.92-2.2c1.27,3,2.48,5.46,5.34,7.2,5.47,3.32,11.58,2.81,17.43,3.8,1.91.33,2.61-.9,1.64-2.57-1.85-3.2-4.18-6-7.81-7.3-3.21-1.16-6.43-2.27-9.92-3.49,2.22-.91,4.23-1.88,6.34-2.51.66-.2,1.67.38,2.4.81,2,1.18,3.77,3,5.91,3.62,6.43,1.93,13,.38,19.46-.11a7.14,7.14,0,0,0,1.51-.58c-6.48-5.68-13.57-6.9-21.06-7.18,1.54-1.17,3.14-2,4.62-3,1.66-1.09,2.83-.81,4.57.28a15.81,15.81,0,0,0,7.66,2.68,71.13,71.13,0,0,0,13-1.51,42.6,42.6,0,0,0,6.38-2.12c-7.33-4.5-15.06-4.33-23.1-3.76,4-3.9,5.54-4.85,8-4,6.63,2.2,12.85.55,19-1.67,1.33-.48,2.59-1.16,3.89-1.74C398.46,419.14,392.61,419.58,386.74,420.89ZM226.31,177.43l.65.56c-1.43,4.95,0,9.14,3.29,13.11,4.08-3.09,5.62-7.33,6.72-11.74l2.39,1.41c-3.67,3.36-4.3,6.95-3,11,1.84,5.53,1.85,5.53,6.41,1.91,0,1.69-.11,3.24,0,4.78a18.42,18.42,0,0,0,.86,4.68c1,2.51,2.12,2.78,3.92.73s3.37-4.55,5.17-7l1.48,2.06a7.51,7.51,0,0,1-.8,1c-5.11,3.62-6.11,7.7-3.27,13.28,1.19,2.34,2,2.56,3.68.46a71.82,71.82,0,0,0,4.22-6.47c1.92,10.33,10.15,19,23.91,20.09,5.95.5,11.81-1.15,13.54-4.74-7.06,1.43-12-2.43-16.89-6.29-3.86-3-7.5-6.36-11.27-9.51-1.53-1.28-3.14-2.46-4.71-3.69l.54-.57c4.18,1.34,8.36,2.9,13.31,0-2-1.69-3.52-3.28-5.31-4.27-3.13-1.74-6.41-3.71-10.19-2.23-2.11.83-3.4.55-4.32-1.56a12.57,12.57,0,0,0-1.46-2.1l.71-.58c5.88,1.39,11.49,1.27,16.86-2.65-3.6-4.1-8.09-5.52-12.69-6.49-3.73-.78-6.47,1.51-9,4.2l-4.71-5.42A17.79,17.79,0,0,0,262,176.67a3.17,3.17,0,0,0,1.08-2c0-.41-1-1-1.69-1.18A46.28,46.28,0,0,0,255.5,172c-4.51-.7-8.78-.41-11.86,3.64-.43.56-.93,1.07-1.48,1.69l-4.64-3.93a11.21,11.21,0,0,1,1.26-.39c6.7-1.06,11.14-5.09,14.21-10.86.63-1.17,1.06-3-.81-2.95-4.11.18-8.31-.12-12.21,2-3.63,2-5.47,5.23-6.93,8.87l-6-3.36a15.58,15.58,0,0,1,1.58-1c6.46-2.87,10.15-8,12-14.64.76-2.72.2-3.36-2.62-2.84-8.78,1.64-15.5,5.6-16.82,15.81l-7.77-3.18c9-4.07,12.86-15.26,11.67-23.62a28.56,28.56,0,0,0-12.72,7.77c-3.77,4-5.44,8.85-3.54,14.72l-8.73-1.3c7.77-7.09,8.27-15.91,7.73-24.83-.1-1.59-.82-2.95-2.69-1.59-5.75,4.17-10.7,9.12-12.18,16.36-.61,3-.1,6.23-.1,9.33h-8c8.54-9.09,6.79-19.21,4.6-30.13a43.4,43.4,0,0,0-11.93,16.06c-2.15,4.91-1.83,10,.42,15.08l-9.35,1.47c6.45-9.81,5.49-23.74,1.95-32-2.42,3.09-4.9,5.74-6.8,8.75-5,8-8.59,16.22-2.62,25.59l-7.51,2.57-.5-.51c5.35-11.33,1.7-21.86-2.61-32.44A7.64,7.64,0,0,0,148,135c-2,4.35-4.17,8.68-5.89,13.16-2.89,7.5-3.27,14.8,3.17,21l-7.49,4.68c2.34-5.65.66-10.94-.71-16.17-2-7.45-5.33-13-8.61-13.89-1.37,4.31-3,8.59-4,13a35.39,35.39,0,0,0-1,10.73,12.57,12.57,0,0,0,7.84,11.06l-7.57,6.3c-.11-.13-.22-.24-.34-.36,1-10.89-3.71-19.33-11.61-27.16a33.46,33.46,0,0,0-1.29,3.12,85.63,85.63,0,0,0-2.67,10.57c-.67,4.87-1,9.88,1.2,14.53,1.58,3.38,4.52,5.23,8.42,6l-6.91,8.53c-.37-2.92-.27-5.8-1.16-8.33a43.68,43.68,0,0,0-10.47-16c-1.27-1.3-2.45-1.47-3,.63-1.85,6.95-3.29,14-2.4,21.22.5,4.07,2.21,7.7,6.14,9.62a28.43,28.43,0,0,0,5.22,1.39l-6.1,11.93c-.45-9.74-5.31-16.23-11.73-21.8-2.13-1.84-3-1.54-3.69,1.21-.53,2-.93,4-1.29,6-.86,5-1.58,9.92-.23,14.95,1.53,5.68,4.11,8.13,9.9,9,1.1.16,2.19.35,3.42.56-1.18,3.62-2.22,6.78-3.48,10.62-.62-1.36-1-2-1.2-2.66-2.3-6.31-7-10.39-12.56-13.7-1.76-1.05-2.91-.81-3.12,1.34-.48,4.77-1.36,9.57-1.15,14.31.35,7.82,4.79,13.32,14.11,13.36a17.5,17.5,0,0,1,1.91.2c-.81,8.69-.86,17.14,1.55,25.61,1-.21,1.46-.29,2-.43s1-.32,1.85-.62a73.58,73.58,0,0,1-1.61-24.2c1.27.82,2,1.38,2.83,1.83,4,2.21,8.49,3.52,12.63,2.14,5.92-2,10.78-6,14.79-10.92,2-2.4,1.9-2.63-.78-4.4a20.83,20.83,0,0,0-24.71,1.89c-1.17,1-2.38,2-3.57,3l-.7-.31c1-4.34,2-8.69,3.14-13.4.91.76,1.47,1.21,2,1.68,4.13,3.52,8.7,5,13.92,2.75a78.45,78.45,0,0,0,9.53-4.65c2.39-1.44,4.42-3.48,6.81-5.41a18.46,18.46,0,0,0-14.45-5.85c-5.15.2-10.27,1.21-15,4.18,2.08-4.51,4.16-9,6.49-14.09.52,1.13.75,1.56.93,2,1.93,5,5.13,7.35,10.51,7.34a29,29,0,0,0,7.61-.91c3.64-1,7.14-2.52,11.1-4-7-10.36-15.61-13.57-26.94-9.65q4.22-5.7,8.42-11.42l.69.17c.3,6.42,3.82,10.24,9.83,10.89,4.14.45,8.44-.28,12.64-.78,2.77-.32,3.32-1.63,1.81-4s-3.21-4.27-4.84-6.39l.54-.51c4,.19,7.89.48,11.84.54,1.88,0,3.15-.83,2.2-3.07s-1.88-4.5-2.82-6.75l.53-.62c3.91.95,7.81,2,11.73,2.83,2,.46,3.16-.42,2.67-2.62s-1.09-4.33-1.64-6.49l.67-.59c2.8,1.3,5.53,2.74,8.39,3.85,2.57,1,3.51.24,3.56-2.66.11-6-.76-11.58-6.41-15.29l.24-.65,8.12-1.46-1.12,2.61a10.6,10.6,0,0,0,4,13.77c.8.54,1.64,1,2.47,1.51,2.26,1.36,3.12,1.11,4-1.4.75-2.11,1.29-4.29,1.92-6.41,1.91,2.38,3.63,4.69,5.53,6.84,1.05,1.21,2.46,1.55,3.46-.1,2.27-3.72,3.8-7.7,3.52-12.15a36.71,36.71,0,0,0-.93-4.6l5.07,1.19c-4.62,7.79-4.4,11.45.8,17.37,2.66,3,3.43,3,5.48-.66a23.14,23.14,0,0,0,2.92-14.39l4.08,1.36c-1.21,2.15-2.53,3.87-3.22,5.81-1.75,4.91,1.41,8.58,3.7,12.36a2.84,2.84,0,0,0,2.51-.19C223.58,182.94,224.9,180.16,226.31,177.43ZM419.11,329l.63.5c-1.76,7.94-3.83,15.83-5.16,23.84a93.09,93.09,0,0,0-1.05,16.94c.08,4.09,3.44,6.71,7.49,6.13a13.17,13.17,0,0,0,6.51-2.93c2.62-2.29,4.65-5.25,6.79-7.76a88.12,88.12,0,0,0,3.81,8.47c1.56,2.76,4.06,3.58,6.9,2.14a22.07,22.07,0,0,0,6.32-4.78,104.23,104.23,0,0,0,6.6-8.94c0,1.77-.05,3.22,0,4.66.3,6.63,6.88,11,12.84,8.09a15.06,15.06,0,0,0,6.1-5.47c4-6.59,7.41-13.48,11-20.29a4.1,4.1,0,0,0,.26-2.78,2.72,2.72,0,0,0-1.72-1.55c-.47-.13-1.3.51-1.73,1a11.67,11.67,0,0,0-1,2c-3.54,6.24-7,12.51-10.69,18.64-1,1.6-2.69,2.74-4.07,4.09l-.79-.45a15.18,15.18,0,0,1-.5-3.37,72.91,72.91,0,0,1,1-8.61c2.15-11.26,4.45-22.49,6.62-33.75.58-3-.1-3.87-3-4.57-3.54-.86-5.43-.07-6.27,2.59-5.12-5.64-10.19-6-16.24-1.14a18.1,18.1,0,0,0-2.36,2.18c-6.83,7.75-11.33,16.65-12.61,26.94-.91,7.32-5,12.79-9.52,18.14a8.1,8.1,0,0,1-1.76,1,29.47,29.47,0,0,1,0-4.75c1.23-6.84,2.64-13.66,3.89-20.5,1-5.68,2.2-11.36,2.84-17.09.38-3.43-1.73-5.81-5-7-3.62-1.36-5.86-1.1-8.2,2.15a138.91,138.91,0,0,0-8.82,14.12c-2.09,3.8-3.59,7.92-5.35,11.9l-.38-.11c1.62-9.2,3.24-18.4,5-28.15-3.13,0-5.75-.05-8.37,0-1.6.05-2.33.9-2.56,2.63-.66,4.88-1.92,9.71-2.31,14.6-.86,10.87-5.35,20.16-11.61,28.78-1.25,1.73-2.36,3.84-5.53,4.15,0-2.69-.37-5.25.07-7.67,2.25-12.43,4.71-24.83,7.09-37.24.83-4.3-.23-5.57-4.7-5.75-2.4-.1-4,.4-4.37,3.33-.71,5.08-2,10.07-2.91,15.13-2,10.82-7.45,20-13.65,28.76a26.44,26.44,0,0,1-3.9,3.71l-.81-.47a16.2,16.2,0,0,1-.39-3.36,78.21,78.21,0,0,1,1-8.93q7.08-36.1,14.29-72.19c1-5.07-1-7.15-6.12-6.51a2.77,2.77,0,0,0-2.69,2.62c-1.69,8.72-3.46,17.43-5.25,26.13-1,4.74-2.06,9.46-3.15,14.43-4.49-5-9-5.65-14.27-2.19a22.69,22.69,0,0,0-4.37,3.75c-7.38,8.24-11.05,18-12.95,28.88-1.24,7-5.6,12.79-11.13,17.44-.13.11-.41,0-1.08,0a18.44,18.44,0,0,1-.56-3.85,61.44,61.44,0,0,1,.93-7.65c2.16-11.25,4.44-22.48,6.62-33.73.67-3.49.18-4.28-2.7-5.05-3.41-.92-5.56-.09-6.62,2.55-3.87-4.7-8-5.77-13-3.15a18.37,18.37,0,0,0-4.38,3.21,46.65,46.65,0,0,0-13.64,27.75c-.87,7.3-4.77,12.67-9.12,18a7.52,7.52,0,0,1-1.64,1.15l-.91-.34c.74-5.7,1.33-11.42,2.27-17.08,1.3-7.81,3-15.56,4.21-23.39a7.48,7.48,0,0,0-1.66-5.18c-2.62-3.24-5.1-3.45-8.81-1.48-1.78.95-3.57,1.86-5.72,3,0-2.17.25-3.62-.06-4.93-.43-1.82-.91-3.89-2.09-5.2a5.67,5.67,0,0,0-4.48-1.35c-.79.12-1.91,2.4-1.74,3.52a85.67,85.67,0,0,0,2.43,9.18c.32,1.17,1,2.38.85,3.52-1.31,13.95-7,26.15-15.16,37.31a36.38,36.38,0,0,0-1.91,3.25l-1.29-.93a24.56,24.56,0,0,1-.15-4.36c.8-5.72,1.68-11.44,2.68-17.13,1.08-6.23,2.38-12.41,3.48-18.64a6.12,6.12,0,0,0-1.51-5.66c-3-3.1-5.31-3.55-9.17-1.49l-5.48,2.91c0-1.83.25-3.06-.06-4.12a22.62,22.62,0,0,0-2.56-6.36c-.63-.91-2.76-1.41-4-1.11A3.76,3.76,0,0,0,211,316.8a93.52,93.52,0,0,0,2.34,9.51c.36,1.37,1.16,2.79,1,4.1a75.15,75.15,0,0,1-12.6,33.65,24,24,0,0,1-7.31,6.56c-4.3,2.63-8.16.64-8.27-4.46s.8-10.41,1.29-15.61c.17-1.77,1.08-2.69,2.89-3.25a26.81,26.81,0,0,0,13.49-8.89c2.91-3.71,4.28-7.88,3.14-12.64s-4.87-7-9.69-5.94a16,16,0,0,0-9,5.9,49.6,49.6,0,0,0-11.09,38.43c1.49,12.06,12.63,16.61,22.34,9.29a26.61,26.61,0,0,0,6.58-7.36c5.66-9.39,10-19.38,12-30.27.35-2,.57-4,.8-5.59l7-2a18.25,18.25,0,0,1-.14,2.08c-1.08,5.36-2.45,10.67-3.23,16.06Q221,357,220.2,367.72a7.3,7.3,0,0,0,4.47,7.58,7.49,7.49,0,0,0,8.78-2.29,77.14,77.14,0,0,0,9.34-12.55c5.3-9.48,9.15-19.57,9.76-30.26l7.34-2c-.88,4.53-1.66,8.8-2.55,13.05-1.78,8.49-4,16.92-3.58,25.71.17,3.45,1,6.77,4.49,8.3s6.73-.09,9.38-2.48a51.18,51.18,0,0,0,4.49-5c.68-.79,1.27-1.66,1.93-2.53.92,2.5,1.58,4.89,2.63,7.1,2.43,5.1,6.15,6.11,10.62,2.57a49.45,49.45,0,0,0,6.77-7.23,53.09,53.09,0,0,0,3.52-5.38c0,2.11-.1,3.59,0,5.06.31,3.56,1.92,6.43,5.19,8a8.85,8.85,0,0,0,10-1.26,38.61,38.61,0,0,0,4.7-5.25c1-1.18,1.75-2.5,2.71-3.89.89,2.53,1.49,4.69,2.39,6.72,2.67,6,6.57,7.15,11.56,2.76,3.08-2.72,5.37-6.33,8-9.56.53-.65,1-1.37,1.72-2.41,0,2,0,3.38,0,4.78a9.17,9.17,0,0,0,14.73,7.13,22.43,22.43,0,0,0,4-4.14c1.53-1.95,2.86-4.06,4.54-6.47.06,1,.1,1.4.11,1.82.11,5.32,2.06,8.64,5.91,10.06,4.07,1.5,8,.28,11.4-3.68,1.51-1.75,2.84-3.64,4.26-5.47l.46.15c-.36,2.87-.72,5.73-1.13,9,2.25.18,4.14.34,6,.46,2.42.14,4.06-.53,4.31-3.4a17,17,0,0,1,1.54-4.53A257.76,257.76,0,0,1,419.11,329ZM351.92,205.25c-2.37-.95-4.71-2-7.14-2.83-1.8-.59-3.12.3-3,2.2.29,4.35.84,8.67,1.29,13,.06.53.12,1.06.21,1.77-2.52-1.77-4.7-3.47-7.05-4.89-2.7-1.64-3.41-1.2-3.87,2s-.93,6.35-1.31,9.54c-1,8.31,2.65,13.28,10.66,14.61.16,0,.27.28.44.47l-9.09,9.58-.61-.38c.23-1.65.58-3.3.65-5,.33-7.92-2.36-14.43-9.07-19-1.61-1.1-2.57-.86-3,1-1.21,4.87-2.87,9.7-3.44,14.66-.77,6.76,2,10,8.82,11.89a15.71,15.71,0,0,1,2.61,1.45l-13.37,9c.19-2,1-3.36,1.37-4.86,2.14-9.07-.13-17.14-5.83-24.34-1.68-2.11-2.74-1.89-3.92.62-1.1,2.33-2.12,4.7-3.22,7a27,27,0,0,0-2.29,14.08c.34,4.06,2.52,6.7,5.69,8.79a26.91,26.91,0,0,0,2.42,1.32l.17.81-15.43,6.92-.82-.79c4.46-4.9,6.26-10.78,6.47-17.07s-1.2-12.44-6.07-17.66c-5.45,7.38-10.26,14.6-11.52,23.65-.66,4.75.62,8.66,4.26,11.81a28.44,28.44,0,0,1,2,2.26l-18.34,3.53c11.16-12.92,15.19-29,9.31-36.15a16.87,16.87,0,0,0-3.11,2.19c-3.94,4.35-8.06,8.59-11.59,13.27-4.41,5.83-4.91,12.39-2,19.16a17.36,17.36,0,0,1,.6,2.4c-1,0-1.7.06-2.41,0-6-.55-11.89-1.14-17.84-1.7-3.28-.3-3.46-.12-3.76,4L267,285.17c-.21,1.45-.42,3.24-.73,5-1.15,6.53,1.39,11.15,7,14.47,6.62,3.91,14,3.55,21.2,4.12,1.67.13,2.28-1.11,1.81-2.62a47.17,47.17,0,0,0-2.12-5.72c-3.19-6.82-7.13-13-14.54-16A7.46,7.46,0,0,1,278,283c2.66-.63,5-1.14,7.24-1.7s4.68-1.19,7.33-1.86a10.69,10.69,0,0,1-.13,1.88c-2.29,7.47,2.68,14.26,8.7,16.54,6.62,2.51,13.51,3,20.47,3.2,2.32.07,2.59-1.27,1.76-2.92a79.24,79.24,0,0,0-4.94-9c-4-5.88-8.11-11.74-16-12.73-.11,0-.18-.32-.41-.74l11.8-5.84a11.38,11.38,0,0,1,.14,1.83c-.82,7.09,3.64,12.49,10.54,14.86,6.3,2.16,12.62,2,19,1.81,2.4-.07,2.74-.81,1.63-3.06a43.44,43.44,0,0,0-2.85-5.4c-3.63-5.36-7.58-10.44-13.91-12.88-2.1-.81-4.3-1.37-6.87-2.17,2-1.46,3.56-2.57,5.09-3.72s3.15-2.48,5-4c.28,1.26.47,2.18.67,3.09,1.33,5.86,6.88,11.1,12.6,11.83a59.48,59.48,0,0,0,18.5-.18c3.18-.59,3.86-1.71,1.78-4.1a86.34,86.34,0,0,0-9.89-10.07c-4.61-3.79-9.74-6.92-16.19-6.3-.12,0-.28-.28-.58-.6l7.72-8.17c2.52,8.23,8.85,11.41,16.3,11.41,6.11,0,12.24-1.77,18.33-2.94,1.54-.3,2.94-1.32,5.12-2.35-3.92-3.05-6.91-5.85-10.34-7.94-5.74-3.51-11.63-7-18.88-5.85l-5,.81,6.42-10.39c5.06,8.47,12.66,9.24,20.7,7.31,4.73-1.14,9.17-3.51,13.7-5.43a22.27,22.27,0,0,0,3.41-2.41c-10.34-6.79-20.5-11.33-32.6-7l-.5-.46,4.88-11.21c4.11,4.58,8.91,6.62,14.23,5.71,4.56-.78,9-2.63,13.33-4.37,2.58-1,4.86-2.8,7.86-4.58-10.71-6.19-20.51-11.71-32.62-3.7,1.23-4.48,2.18-7.92,3.19-11.62a12.31,12.31,0,0,0,2.22,1.32c2.68.94,5.39,2.49,8.09,2.5,8.23.05,14.58-4.37,20.25-9.85,1.08-1,.64-2.28-.73-2.83-5-2-10-3.81-15.53-3.54a19.2,19.2,0,0,0-12.27,4.89l-.46-.45c.55-3.57,1.1-7.15,1.7-11,.86.39,1.34.58,1.79.82a12.88,12.88,0,0,0,11.35.81c6.39-2.46,10.26-7.49,14.17-12.59a10.17,10.17,0,0,0,.91-2.14c-10.78-3-20.27-2.17-27.85,7.68-.19-4.16-.35-7.68-.52-11.47,6.26,1,11.42-.39,15.05-4.84a76.38,76.38,0,0,0,7.27-11.68c1.16-2.09-.44-2.56-2.22-2.53A22.86,22.86,0,0,0,379.23,141l-3,3.54c-.56-3.6-1-6.39-1.43-9.33,7.72-.46,12.25-4.69,14.89-11.26,1-2.38,1.75-4.83,2.55-7.27.72-2.2-.14-3.36-2.25-2.71-4.2,1.29-8.41,2.69-11.08,6.62-1.88,2.78-3.83,5.51-5.92,8.5l-2.19-6.68c2.7-2.38,5.46-4,7-6.34,3.45-5.36,2.81-11.72,3.27-17.77,0-.34-.39-.71-.79-1.37-7.05,4.15-10.58,10.47-11.92,18.35l-.69-.19-3.47-6.94c5.5-4.87,6.88-6.46,7.21-9.74a52.54,52.54,0,0,0,.15-9.63c-.22-2.54-1.16-5-2-8.18-6.39,6.43-8.1,13.63-8.48,22.17a59.35,59.35,0,0,1-3.86-5.56,3.29,3.29,0,0,1,.1-2.86c3.27-4.34,2.86-9.26,2.17-14.1-.36-2.59-1.63-5-2.72-8.22-4.24,6-4.26,12-3.77,18.37-3-2.33-2.43-5.42-3.31-8-2.09-6.07-4.38-12.08-6.3-18.2-2.19-7-3.93-14.08-.91-21.34.07-.18-.23-.51-.35-.77-3.91,2.4-8.32,12-9,19.86-1.07,12.73,1.91,23.81,13.88,31.35-2.16.41-3.93.43-5.39,1.11a44,44,0,0,0-5.47,3.5c1.41,1.61,2.57,3.61,4.29,4.76,4.31,2.88,7,2.32,10.72-1.48a11.51,11.51,0,0,1,2.07-1.32l1.61,2.87c-3.43,1.61-6.64,2.94-9.67,4.59-1.73.95-1.94,2.57-.24,3.92,3.1,2.47,6.29,4.81,10.62,3.12,1.71-.67,3.39-1.43,5.39-2.28l1.52,3.38a24.55,24.55,0,0,0-4.2.5,47.79,47.79,0,0,0-6.75,2.66,2.49,2.49,0,0,0-.68,2.35c2.6,4.67,9.25,6.53,13.92,4.07a9.56,9.56,0,0,1,1.62-.5c.38,1.22.7,2.24,1.07,3.46-5.62-.39-10.35.63-14.53,4.06,1.84,3.29,4.06,6.05,7.28,7.28,3.41,1.3,6.95.76,10.21-2.31.57,2.41,1,4.19,1.52,6.41-5.34-2.36-10.11-2.43-14.85-.19-3.28,1.54-3.56,2.51-1.36,5.26,1.21,1.49,2.56,2.88,3.9,4.26a8.2,8.2,0,0,0,10.48,1.46c.79-.45,1.56-.92,2.73-1.61v6.22c-.37.1-.49.19-.57.16-.6-.23-1.17-.51-1.77-.73a19.74,19.74,0,0,0-15,.46c-1.87.82-2.54,1.92-1.44,3.74a72.71,72.71,0,0,0,4.28,6.76,8.58,8.58,0,0,0,10.42,2.58c1-.43,2.06-.9,3.65-1.61-.29,2.88-.51,5.12-.81,8.21-4.83-4.74-9.89-4.81-15.24-3.72-5.51,1.11-4.57,2.78-3.13,6.42a22.66,22.66,0,0,0,2.18,3.56l2.71,4.24c-3.08,0-5.64-.14-8.18,0-1.79.13-3,1.09-2.54,3.24.89,4.45,2,8.81,5.17,12.27ZM382.58,42.1c-6.68-3-13.18-6.56-20.09-8.85-11-3.64-22.2-6.6-33.4-9.53-15.58-4.07-31.56-5.66-47.59-6.13A252.85,252.85,0,0,0,173.66,38.88,214.12,214.12,0,0,0,136.74,59c-7,4.86-14.26,9.5-20.68,15.07-9,7.8-17.56,16.16-25.9,24.68C80,109.23,71.3,121,63.47,133.29a266.88,266.88,0,0,0-20,38.3,248,248,0,0,0-14.14,45.17,217.6,217.6,0,0,0-5.27,46.71c0,9.25.06,18.54.92,27.74a240.19,240.19,0,0,0,9.89,50.19c2.15,6.8,4.15,13.66,6.67,20.32,1.8,4.76,4.43,9.19,6.54,13.84,6.47,14.27,15,27.32,23.64,40.33,2.8,4.23,6.31,8,9.56,11.94a244.7,244.7,0,0,0,34.54,34.48,250.31,250.31,0,0,0,153.73,56.36,256.72,256.72,0,0,0,52.95-4.41,248.25,248.25,0,0,0,41.44-11.92,251.8,251.8,0,0,0,48.39-24.89A247.31,247.31,0,0,0,455,442.09c12-12.56,23.06-25.93,31.91-40.89a330.42,330.42,0,0,0,17.69-33.76,234.75,234.75,0,0,0,11.22-32,275,275,0,0,0,7-32.89c1.41-9.27,1.5-18.74,2.17-28.12V262.26l-.42,0q-.42,6.06-.83,12.12c-.16.14-.44.27-.45.42-.37,10.82-3,21.3-5.2,31.8A138.77,138.77,0,0,1,512,326.35c-3.39,8.91-6.93,17.81-11.14,26.34a178.64,178.64,0,0,1-13.28,22.79c-6.52,9.42-13.3,18.79-21,27.24-8.42,9.25-17.82,17.64-27.15,26a247.89,247.89,0,0,1-22.23,18.06,223.29,223.29,0,0,1-54.42,28.27,228.29,228.29,0,0,1-59.68,12.58,223.89,223.89,0,0,1-61.88-4,230.79,230.79,0,0,1-40.91-12.47,193.71,193.71,0,0,1-36.93-19.44c-5-3.41-9.92-6.86-14.67-10.56-6.09-4.76-12.31-9.43-17.87-14.78-7.24-7-14.08-14.37-20.7-21.93a143.74,143.74,0,0,1-13.49-17.57,238.36,238.36,0,0,1-12.32-22.74,231.23,231.23,0,0,1-10.53-23.81c-3.39-9.53-6.05-19.34-8.59-29.13a192.09,192.09,0,0,1-5.64-44.07A231,231,0,0,1,64,216.75a226.84,226.84,0,0,1,28.17-72.86A227.13,227.13,0,0,1,191.93,55c5.82-2.61,11.66-5.16,17.51-7.71,3.09-1.35,6.18-2.74,9.34-3.9,4-1.48,8.1-3,12.26-4.06,10.31-2.71,20.59-5.64,31-7.65,8.14-1.57,16.51-2,24.79-2.76,16.55-1.58,33-.28,49.34,2.23,4.29.66,8.56,1.57,12.76,2.65,7.54,1.93,15,4,22.52,6.14,3.71,1,7.36,2.31,11,3.47l9,4.07.37-.81ZM183.34,285.88c3.75,0,6.65.09,9.54,0,7.87-.3,15.73-1,22.48-5.55,2.77-1.85,5-4.56,7.2-7.14.58-.7.2-2.42-.16-3.54-.09-.27-2-.27-2.82.07-9.19,3.61-18.83,3.6-28.47,3.68a11.23,11.23,0,0,1-1.83-.36c1.07-1.69,2-3,2.73-4.37a11.13,11.13,0,0,0,.71-2.18c-.87-.13-2-.66-2.55-.32-2.85,1.65-5.52,3.62-8.35,5.31a8,8,0,0,1-3.95,1.39c-6-.19-12-.79-18-1-11.54-.37-22.92.41-33.72,5.09-19.2,8.31-22.28,25.87-17.32,40.76,3.31,9.92,12.61,16.39,21.89,15.82,11.85-.73,24.18-12.15,25.63-24,.77-6.24-.68-12-6.15-15.6-4.88-3.23-10.16-2.06-15,.57-5.71,3.14-9.59,8.14-12.71,13.75-.2.37-.48.89-.37,1.21a5.87,5.87,0,0,0,1.36,2.61c.33.26,1.76-.38,2.3-1,1.3-1.41,2.26-3.13,3.54-4.56a26.29,26.29,0,0,1,12.26-7.93c6.13-1.8,10,1,9.93,7.36a14.69,14.69,0,0,1-1.94,7.29c-5,8-12.6,12.07-21.92,12.65-5.52.34-10-2.21-13.19-6.68-5.85-8.2-4.11-22,4-27.9a40.55,40.55,0,0,1,13-5.95c10.81-2.93,21.89-2.25,32.91-1.09,2.71.28,5.43.47,8.44.73-5.06,13.56-6.45,27.47-9.08,41.1a118.29,118.29,0,0,1-7.17,24.6c-7.64,17.77-31.72,25.07-48.51,17-6.28-3-10.92-7.58-12.17-14.77-1-5.69.72-9.58,5.11-12.1s10.79-1.92,14.5,1.34a8.51,8.51,0,0,1,3,7.17,5.43,5.43,0,0,1-7,5.13,26.51,26.51,0,0,0-.86-3.13c-.79-1.91-2.23-3.1-4.31-2.2s-1.75,2.81-1.07,4.44a8.68,8.68,0,0,0,7.54,5.71c4.48.39,8.48-.86,10.68-5s.92-8.51-1.93-12c-5.24-6.39-12.15-9-20.34-7.37-8,1.59-13.32,8.22-12.14,15.63a23.72,23.72,0,0,0,4.17,10.57c8.1,10.31,19.35,14.56,32.2,14.44,9-.09,17.19-3.47,25-7.66,10.26-5.55,16.61-14.71,19.94-25.46,3.41-11,5.45-22.44,8-33.71C180.12,301.22,181.68,293.59,183.34,285.88Zm341.27-55.72c1.28-10.75,3.46-21.57,10-31a56.77,56.77,0,0,1,4.49-6.29c4-4.39,8.1-8.8,12.54-12.78s9.27-7,13.63-10.82c5.85-5.13,9.93-11.57,13.06-18.72,6.2-14.15,5.38-28.4.27-42.41a112.06,112.06,0,0,0-18.82-32.32c-7-8.54-14.81-16-24.82-20.67-9.2-4.27-19-6.25-29.2-4.11A112.81,112.81,0,0,0,490.33,55c-4.48,1.63-8.58,4.26-12.86,6.44-7.12,3.63-14.9,4.9-22.68,5.5a59.76,59.76,0,0,1-29.35-5.08c-1-.46-2.12-.84-3.18-1.26a3,3,0,0,0,1.46,1.66c6.5,2.79,12.73,6,19.84,7.53a68.62,68.62,0,0,0,38.05-2.42c4.94-1.77,9.62-4.28,14.58-6a47.33,47.33,0,0,1,31,.22,57.75,57.75,0,0,1,25.52,17.68c6,7,11.36,14.47,15,23.07,3.77,9,6.26,18.14,6,27.94a45,45,0,0,1-5,20.25c-11.12-4.22-22.34-9.13-39-28.28C518.59,109.48,513,94.11,510.16,77.67c2.71,36.87,19.54,64.71,53.39,82.12-2.55,2.55-4.77,5-7.28,7.18-2.15,1.83-5,2.92-6.9,4.92-5,5.16-10.07,10.17-14,16.25a63.69,63.69,0,0,0-6.53,13C525.37,210.57,523.54,220.34,524.61,230.16ZM388.48,305.51l-.43-.3a28.49,28.49,0,0,0-.86-4.34c-1.26-3.6-4.52-4.23-6.78-1.23a15,15,0,0,0-2.59,13c.29,1.21,1.74,2.92,2.77,3a5.34,5.34,0,0,0,4.28-1.83C386.45,311.28,387.32,308.31,388.48,305.51Z"/><path class="cls-2" d="M525,274.39c-.67,9.38-.76,18.85-2.17,28.12a275,275,0,0,1-7,32.89,234.75,234.75,0,0,1-11.22,32,330.42,330.42,0,0,1-17.69,33.76c-8.85,15-19.87,28.33-31.91,40.89a247.31,247.31,0,0,1-42.67,35.36,251.8,251.8,0,0,1-48.39,24.89,248.25,248.25,0,0,1-41.44,11.92,256.72,256.72,0,0,1-52.95,4.41,251.72,251.72,0,0,1-153.73-56.36,244.7,244.7,0,0,1-34.54-34.48c-3.25-3.93-6.76-7.71-9.56-11.94-8.6-13-17.17-26.06-23.64-40.33-2.11-4.65-4.74-9.08-6.54-13.84C39,355.06,37,348.2,34.87,341.4A240.19,240.19,0,0,1,25,291.21c-.86-9.2-.91-18.49-.92-27.74a217.6,217.6,0,0,1,5.27-46.71,248,248,0,0,1,14.14-45.17,266.88,266.88,0,0,1,20-38.3C71.3,121,80,109.23,90.16,98.79c8.34-8.52,16.9-16.88,25.9-24.68,6.42-5.57,13.66-10.21,20.68-15.07a214.12,214.12,0,0,1,36.92-20.16A252.85,252.85,0,0,1,281.5,17.59c16,.47,32,2.06,47.59,6.13,11.2,2.93,22.41,5.89,33.4,9.53,6.91,2.29,13.41,5.86,20.09,8.85,0,.42,0,.84-.05,1.26-3.68-1.16-7.33-2.42-11-3.47-7.49-2.12-15-4.21-22.52-6.14-4.2-1.08-8.47-2-12.76-2.65-16.36-2.51-32.79-3.81-49.34-2.23-8.28.78-16.65,1.19-24.79,2.76-10.45,2-20.73,4.94-31,7.65-4.16,1.1-8.22,2.58-12.26,4.06-3.16,1.16-6.25,2.55-9.34,3.9-5.85,2.55-11.69,5.1-17.51,7.71a227.13,227.13,0,0,0-99.8,88.94A226.84,226.84,0,0,0,64,216.75a231,231,0,0,0-4.43,50.38,192.09,192.09,0,0,0,5.64,44.07c2.54,9.79,5.2,19.6,8.59,29.13a231.23,231.23,0,0,0,10.53,23.81,238.36,238.36,0,0,0,12.32,22.74,143.74,143.74,0,0,0,13.49,17.57c6.62,7.56,13.46,15,20.7,21.93,5.56,5.35,11.78,10,17.87,14.78,4.75,3.7,9.71,7.15,14.67,10.56a193.71,193.71,0,0,0,36.93,19.44,230.79,230.79,0,0,0,40.91,12.47,223.89,223.89,0,0,0,61.88,4,228.29,228.29,0,0,0,59.68-12.58,223.29,223.29,0,0,0,54.42-28.27,247.89,247.89,0,0,0,22.23-18.06c9.33-8.36,18.73-16.75,27.15-26,7.7-8.45,14.48-17.82,21-27.24a178.64,178.64,0,0,0,13.28-22.79c4.21-8.53,7.75-17.43,11.14-26.34a138.77,138.77,0,0,0,6.09-19.73c2.25-10.5,4.83-21,5.2-31.8,0-.15.29-.28.45-.42Z"/><path class="cls-3" d="M363.39,217.83c12.1-4.28,22.26.26,32.6,7a22.27,22.27,0,0,1-3.41,2.41c-4.53,1.92-9,4.29-13.7,5.43-8,1.93-15.64,1.16-20.7-7.31l-6.42,10.39,5-.81c7.25-1.15,13.14,2.34,18.88,5.85,3.43,2.09,6.42,4.89,10.34,7.94-2.18,1-3.58,2.05-5.12,2.35-6.09,1.17-12.22,2.94-18.33,2.94-7.45,0-13.78-3.18-16.3-11.41l-7.72,8.17c.3.32.46.61.58.6,6.45-.62,11.58,2.51,16.19,6.3a86.34,86.34,0,0,1,9.89,10.07c2.08,2.39,1.4,3.51-1.78,4.1a59.48,59.48,0,0,1-18.5.18c-5.72-.73-11.27-6-12.6-11.83-.2-.91-.39-1.83-.67-3.09-1.88,1.48-3.43,2.74-5,4s-3.09,2.26-5.09,3.72c2.57.8,4.77,1.36,6.87,2.17,6.33,2.44,10.28,7.52,13.91,12.88a43.44,43.44,0,0,1,2.85,5.4c1.11,2.25.77,3-1.63,3.06-6.41.19-12.73.35-19-1.81-6.9-2.37-11.36-7.77-10.54-14.86a11.38,11.38,0,0,0-.14-1.83L302,275.69c.23.42.3.72.41.74,7.92,1,12.05,6.85,16,12.73a79.24,79.24,0,0,1,4.94,9c.83,1.65.56,3-1.76,2.92-7-.19-13.85-.69-20.47-3.2-6-2.28-11-9.07-8.7-16.54a10.69,10.69,0,0,0,.13-1.88c-2.65.67-5,1.28-7.33,1.86S280.7,282.4,278,283a7.46,7.46,0,0,0,1.6,1.37c7.41,3,11.35,9.21,14.54,16a47.17,47.17,0,0,1,2.12,5.72c.47,1.51-.14,2.75-1.81,2.62-7.21-.57-14.58-.21-21.2-4.12-5.65-3.32-8.19-7.94-7-14.47.31-1.77.52-3.56.73-5l-27.23-1.63c.3-4.09.48-4.27,3.76-4,6,.56,11.89,1.15,17.84,1.7.71.07,1.43,0,2.41,0a17.36,17.36,0,0,0-.6-2.4c-2.91-6.77-2.41-13.33,2-19.16,3.53-4.68,7.65-8.92,11.59-13.27a16.87,16.87,0,0,1,3.11-2.19c5.88,7.12,1.85,23.23-9.31,36.15l18.34-3.53a28.44,28.44,0,0,0-2-2.26c-3.64-3.15-4.92-7.06-4.26-11.81,1.26-9.05,6.07-16.27,11.52-23.65,4.87,5.22,6.28,11.23,6.07,17.66s-2,12.17-6.47,17.07l.82.79L310,267.76l-.17-.81a26.91,26.91,0,0,1-2.42-1.32c-3.17-2.09-5.35-4.73-5.69-8.79A27,27,0,0,1,304,242.76c1.1-2.32,2.12-4.69,3.22-7,1.18-2.51,2.24-2.73,3.92-.62,5.7,7.2,8,15.27,5.83,24.34-.35,1.5-1.18,2.88-1.37,4.86l13.37-9a15.71,15.71,0,0,0-2.61-1.45c-6.79-1.86-9.59-5.13-8.82-11.89.57-5,2.23-9.79,3.44-14.66.47-1.86,1.43-2.1,3-1,6.71,4.62,9.4,11.13,9.07,19-.07,1.67-.42,3.32-.65,5l.61.38,9.09-9.58c-.17-.19-.28-.45-.44-.47-8-1.33-11.67-6.3-10.66-14.61.38-3.19.86-6.36,1.31-9.54s1.17-3.67,3.87-2c2.35,1.42,4.53,3.12,7.05,4.89-.09-.71-.15-1.24-.21-1.77-.45-4.34-1-8.66-1.29-13-.13-1.9,1.19-2.79,3-2.2,2.43.8,4.77,1.88,7.14,2.83,3.82,2.25,5.69,5.88,6.65,10.15l1,0,4.19-9.45-.64-.59a13.93,13.93,0,0,1-10.57-.83c-3.22-3.46-4.28-7.82-5.17-12.27-.43-2.15.75-3.11,2.54-3.24,2.54-.19,5.1,0,8.18,0l-2.71-4.24a22.66,22.66,0,0,1-2.18-3.56c-1.44-3.64-2.38-5.31,3.13-6.42,5.35-1.09,10.41-1,15.24,3.72.3-3.09.52-5.33.81-8.21-1.59.71-2.61,1.18-3.65,1.61a8.58,8.58,0,0,1-10.42-2.58,72.71,72.71,0,0,1-4.28-6.76c-1.1-1.82-.43-2.92,1.44-3.74a19.74,19.74,0,0,1,15-.46c.6.22,1.17.5,1.77.73.08,0,.2-.06.57-.16V152.7c-1.17.69-1.94,1.16-2.73,1.61a8.2,8.2,0,0,1-10.48-1.46c-1.34-1.38-2.69-2.77-3.9-4.26-2.2-2.75-1.92-3.72,1.36-5.26,4.74-2.24,9.51-2.17,14.85.19-.53-2.22-.95-4-1.52-6.41-3.26,3.07-6.8,3.61-10.21,2.31-3.22-1.23-5.44-4-7.28-7.28,4.18-3.43,8.91-4.45,14.53-4.06-.37-1.22-.69-2.24-1.07-3.46a9.56,9.56,0,0,0-1.62.5c-4.67,2.46-11.32.6-13.92-4.07a2.49,2.49,0,0,1,.68-2.35A47.79,47.79,0,0,1,358.3,116a24.55,24.55,0,0,1,4.2-.5L361,112.16c-2,.85-3.68,1.61-5.39,2.28-4.33,1.69-7.52-.65-10.62-3.12-1.7-1.35-1.49-3,.24-3.92,3-1.65,6.24-3,9.67-4.59l-1.61-2.87a11.51,11.51,0,0,0-2.07,1.32c-3.69,3.8-6.41,4.36-10.72,1.48-1.72-1.15-2.88-3.15-4.29-4.76a44,44,0,0,1,5.47-3.5c1.46-.68,3.23-.7,5.39-1.11-12-7.54-14.95-18.62-13.88-31.35.67-7.9,5.08-17.46,9-19.86.12.26.42.59.35.77-3,7.26-1.28,14.35.91,21.34,1.92,6.12,4.21,12.13,6.3,18.2.88,2.54.34,5.63,3.31,8-.49-6.42-.47-12.36,3.77-18.37,1.09,3.17,2.36,5.63,2.72,8.22.69,4.84,1.1,9.76-2.17,14.1a3.29,3.29,0,0,0-.1,2.86,59.35,59.35,0,0,0,3.86,5.56c.38-8.54,2.09-15.74,8.48-22.17.79,3.17,1.73,5.64,2,8.18a52.54,52.54,0,0,1-.15,9.63c-.33,3.28-1.71,4.87-7.21,9.74l3.47,6.94.69.19c1.34-7.88,4.87-14.2,11.92-18.35.4.66.82,1,.79,1.37-.46,6,.18,12.41-3.27,17.77-1.53,2.37-4.29,4-7,6.34l2.19,6.68c2.09-3,4-5.72,5.92-8.5,2.67-3.93,6.88-5.33,11.08-6.62,2.11-.65,3,.51,2.25,2.71-.8,2.44-1.59,4.89-2.55,7.27-2.64,6.57-7.17,10.8-14.89,11.26.45,2.94.87,5.73,1.43,9.33l3-3.54A22.86,22.86,0,0,1,397,132.7c1.78,0,3.38.44,2.22,2.53a76.38,76.38,0,0,1-7.27,11.68c-3.63,4.45-8.79,5.87-15.05,4.84.17,3.79.33,7.31.52,11.47,7.58-9.85,17.07-10.7,27.85-7.68a10.17,10.17,0,0,1-.91,2.14c-3.91,5.1-7.78,10.13-14.17,12.59a12.88,12.88,0,0,1-11.35-.81c-.45-.24-.93-.43-1.79-.82-.6,3.85-1.15,7.43-1.7,11l.46.45a19.2,19.2,0,0,1,12.27-4.89c5.5-.27,10.55,1.53,15.53,3.54,1.37.55,1.81,1.79.73,2.83-5.67,5.48-12,9.9-20.25,9.85-2.7,0-5.41-1.56-8.09-2.5a12.31,12.31,0,0,1-2.22-1.32c-1,3.7-2,7.14-3.19,11.62,12.11-8,21.91-2.49,32.62,3.7-3,1.78-5.28,3.54-7.86,4.58-4.34,1.74-8.77,3.59-13.33,4.37-5.32.91-10.12-1.13-14.23-5.71l-4.88,11.21,0,.8Zm-19.14,3.52,1,.13-.51-.68-.6-.7-.74-.47c.12.27.25.55.38.82Zm10.63,2.72-9.53-1.91c.82,3.76,1.66,7.6,2.61,11.92Zm14.81-35.85-.44-.55A12.48,12.48,0,0,1,358,188.91l9.43,6.71C368.11,193.36,368.9,190.79,369.69,188.22Z"/><path class="cls-4" d="M419.11,329A257.76,257.76,0,0,0,400,368.12a17,17,0,0,0-1.54,4.53c-.25,2.87-1.89,3.54-4.31,3.4-1.88-.12-3.77-.28-6-.46.41-3.28.77-6.14,1.13-9l-.46-.15c-1.42,1.83-2.75,3.72-4.26,5.47-3.41,4-7.33,5.18-11.4,3.68-3.85-1.42-5.8-4.74-5.91-10.06,0-.42-.05-.85-.11-1.82-1.68,2.41-3,4.52-4.54,6.47a22.43,22.43,0,0,1-4,4.14,9.17,9.17,0,0,1-14.73-7.13c-.05-1.4,0-2.79,0-4.78-.74,1-1.19,1.76-1.72,2.41-2.63,3.23-4.92,6.84-8,9.56-5,4.39-8.89,3.28-11.56-2.76-.9-2-1.5-4.19-2.39-6.72-1,1.39-1.74,2.71-2.71,3.89a38.61,38.61,0,0,1-4.7,5.25,8.85,8.85,0,0,1-10,1.26c-3.27-1.53-4.88-4.4-5.19-8-.12-1.47,0-2.95,0-5.06a53.09,53.09,0,0,1-3.52,5.38,49.45,49.45,0,0,1-6.77,7.23c-4.47,3.54-8.19,2.53-10.62-2.57-1.05-2.21-1.71-4.6-2.63-7.1-.66.87-1.25,1.74-1.93,2.53a51.18,51.18,0,0,1-4.49,5c-2.65,2.39-5.77,4.06-9.38,2.48s-4.32-4.85-4.49-8.3c-.43-8.79,1.8-17.22,3.58-25.71.89-4.25,1.67-8.52,2.55-13.05l-7.34,2c-.61,10.69-4.46,20.78-9.76,30.26A77.14,77.14,0,0,1,233.45,373a7.49,7.49,0,0,1-8.78,2.29,7.3,7.3,0,0,1-4.47-7.58q.77-10.7,2.32-21.33c.78-5.39,2.15-10.7,3.23-16.06a18.25,18.25,0,0,0,.14-2.08l-7,2c-.23,1.63-.45,3.62-.8,5.59-2,10.89-6.31,20.88-12,30.27a26.61,26.61,0,0,1-6.58,7.36c-9.71,7.32-20.85,2.77-22.34-9.29a49.6,49.6,0,0,1,11.09-38.43,16,16,0,0,1,9-5.9c4.82-1.08,8.55,1.19,9.69,5.94s-.23,8.93-3.14,12.64a26.81,26.81,0,0,1-13.49,8.89c-1.81.56-2.72,1.48-2.89,3.25-.49,5.2-1.4,10.42-1.29,15.61s4,7.09,8.27,4.46a24,24,0,0,0,7.31-6.56,75.15,75.15,0,0,0,12.6-33.65c.15-1.31-.65-2.73-1-4.1A93.52,93.52,0,0,1,211,316.8a3.76,3.76,0,0,1,1.94-3.13c1.21-.3,3.34.2,4,1.11a22.62,22.62,0,0,1,2.56,6.36c.31,1.06.06,2.29.06,4.12l5.48-2.91c3.86-2.06,6.18-1.61,9.17,1.49a6.12,6.12,0,0,1,1.51,5.66c-1.1,6.23-2.4,12.41-3.48,18.64-1,5.69-1.88,11.41-2.68,17.13a24.56,24.56,0,0,0,.15,4.36l1.29.93a36.38,36.38,0,0,1,1.91-3.25c8.19-11.16,13.85-23.36,15.16-37.31.1-1.14-.53-2.35-.85-3.52a85.67,85.67,0,0,1-2.43-9.18c-.17-1.12.95-3.4,1.74-3.52a5.67,5.67,0,0,1,4.48,1.35c1.18,1.31,1.66,3.38,2.09,5.2.31,1.31.06,2.76.06,4.93,2.15-1.11,3.94-2,5.72-3,3.71-2,6.19-1.76,8.81,1.48a7.48,7.48,0,0,1,1.66,5.18c-1.19,7.83-2.91,15.58-4.21,23.39-.94,5.66-1.53,11.38-2.27,17.08l.91.34a7.52,7.52,0,0,0,1.64-1.15c4.35-5.31,8.25-10.68,9.12-18a46.65,46.65,0,0,1,13.64-27.75,18.37,18.37,0,0,1,4.38-3.21c5-2.62,9.11-1.55,13,3.15,1.06-2.64,3.21-3.47,6.62-2.55,2.88.77,3.37,1.56,2.7,5.05-2.18,11.25-4.46,22.48-6.62,33.73a61.44,61.44,0,0,0-.93,7.65,18.44,18.44,0,0,0,.56,3.85c.67,0,.95.09,1.08,0,5.53-4.65,9.89-10.4,11.13-17.44,1.9-10.84,5.57-20.64,12.95-28.88a22.69,22.69,0,0,1,4.37-3.75c5.25-3.46,9.78-2.8,14.27,2.19,1.09-5,2.17-9.69,3.15-14.43,1.79-8.7,3.56-17.41,5.25-26.13a2.77,2.77,0,0,1,2.69-2.62c5.15-.64,7.13,1.44,6.12,6.51q-7.16,36.09-14.29,72.19a78.21,78.21,0,0,0-1,8.93,16.2,16.2,0,0,0,.39,3.36l.81.47a26.44,26.44,0,0,0,3.9-3.71c6.2-8.79,11.69-17.94,13.65-28.76.91-5.06,2.2-10,2.91-15.13.41-2.93,2-3.43,4.37-3.33,4.47.18,5.53,1.45,4.7,5.75-2.38,12.41-4.84,24.81-7.09,37.24-.44,2.42-.07,5-.07,7.67,3.17-.31,4.28-2.42,5.53-4.15,6.26-8.62,10.75-17.91,11.61-28.78.39-4.89,1.65-9.72,2.31-14.6.23-1.73,1-2.58,2.56-2.63,2.62-.07,5.24,0,8.37,0-1.72,9.75-3.34,18.95-5,28.15l.38.11c1.76-4,3.26-8.1,5.35-11.9a138.91,138.91,0,0,1,8.82-14.12c2.34-3.25,4.58-3.51,8.2-2.15,3.26,1.23,5.37,3.61,5,7-.64,5.73-1.8,11.41-2.84,17.09-1.25,6.84-2.66,13.66-3.89,20.5a29.47,29.47,0,0,0,0,4.75,8.1,8.1,0,0,0,1.76-1c4.49-5.35,8.61-10.82,9.52-18.14,1.28-10.29,5.78-19.19,12.61-26.94a18.1,18.1,0,0,1,2.36-2.18c6.05-4.87,11.12-4.5,16.24,1.14.84-2.66,2.73-3.45,6.27-2.59,2.87.7,3.55,1.59,3,4.57-2.17,11.26-4.47,22.49-6.62,33.75a72.91,72.91,0,0,0-1,8.61,15.18,15.18,0,0,0,.5,3.37l.79.45c1.38-1.35,3.11-2.49,4.07-4.09,3.7-6.13,7.15-12.4,10.69-18.64a11.67,11.67,0,0,1,1-2c.43-.5,1.26-1.14,1.73-1a2.72,2.72,0,0,1,1.72,1.55,4.1,4.1,0,0,1-.26,2.78c-3.56,6.81-7,13.7-11,20.29a15.06,15.06,0,0,1-6.1,5.47c-6,2.87-12.54-1.46-12.84-8.09-.06-1.44,0-2.89,0-4.66a104.23,104.23,0,0,1-6.6,8.94,22.07,22.07,0,0,1-6.32,4.78c-2.84,1.44-5.34.62-6.9-2.14a88.12,88.12,0,0,1-3.81-8.47c-2.14,2.51-4.17,5.47-6.79,7.76a13.17,13.17,0,0,1-6.51,2.93c-4,.58-7.41-2-7.49-6.13a93.09,93.09,0,0,1,1.05-16.94c1.33-8,3.4-15.9,5.16-23.84l.38-1,.48-1.44-.44-.2-.84,1.4Zm26.68,41a33.66,33.66,0,0,0,2.63-2.12c10.37-10.5,14.22-23.79,16-37.91.26-2,.66-5-1.88-5.49-1.46-.31-3.8,1.21-5.05,2.56-10.32,11.06-13.75,24.52-13.1,39.27C444.46,367.45,445.23,368.56,445.79,370ZM285,370.12a12.16,12.16,0,0,0,2.47-1.71c3.1-4.07,6.4-8,9.1-12.34,4.51-7.21,5.6-15.61,7.4-23.73a15.6,15.6,0,0,0,0-5.41c-.39-2.72-2-3.48-4.28-2a17.83,17.83,0,0,0-3.84,3.36c-8.66,10.19-11.8,22.31-12.06,35.36C283.8,365.62,284.54,367.64,285,370.12Zm46.21,0c1.4-1,2.26-1.32,2.72-1.95,3.36-4.68,7-9.22,9.87-14.18,4.4-7.56,4.64-16.39,6.53-24.7a6.28,6.28,0,0,0-.3-2.86c-.64-2.34-2.06-3-4-1.62a25.45,25.45,0,0,0-5.12,4.82c-7.87,9.92-10.56,21.59-10.92,33.94C329.9,365.57,330.7,367.59,331.22,370.13Zm-142.14-27.3.86.64c2.5-1.62,5.36-2.9,7.4-5a21.88,21.88,0,0,0,4.86-7.66c1.2-3.31.11-5.85-1.71-6.52s-4.64.87-5.92,3.92C192.55,333,190.89,338,189.08,342.83Z"/><path class="cls-3" d="M153.58,165.19l7.51-2.57c-6-9.37-2.4-17.62,2.62-25.59,1.9-3,4.38-5.66,6.8-8.75,3.54,8.22,4.5,22.15-1.95,32l9.35-1.47c-2.25-5.11-2.57-10.17-.42-15.08a43.4,43.4,0,0,1,11.93-16.06c2.19,10.92,3.94,21-4.6,30.13h8c0-3.1-.51-6.33.1-9.33,1.48-7.24,6.43-12.19,12.18-16.36,1.87-1.36,2.59,0,2.69,1.59.54,8.92,0,17.74-7.73,24.83l8.73,1.3c-1.9-5.87-.23-10.75,3.54-14.72a28.56,28.56,0,0,1,12.72-7.77c1.19,8.36-2.68,19.55-11.67,23.62l7.77,3.18c1.32-10.21,8-14.17,16.82-15.81,2.82-.52,3.38.12,2.62,2.84-1.84,6.64-5.53,11.77-12,14.64a15.58,15.58,0,0,0-1.58,1l6,3.36c1.46-3.64,3.3-6.86,6.93-8.87,3.9-2.17,8.1-1.87,12.21-2,1.87-.09,1.44,1.78.81,2.95-3.07,5.77-7.51,9.8-14.21,10.86a11.21,11.21,0,0,0-1.26.39l4.64,3.93c.55-.62,1.05-1.13,1.48-1.69,3.08-4.05,7.35-4.34,11.86-3.64a46.28,46.28,0,0,1,5.91,1.44c.66.2,1.68.77,1.69,1.18a3.17,3.17,0,0,1-1.08,2,17.79,17.79,0,0,1-15.65,4.66l4.71,5.42c2.58-2.69,5.32-5,9-4.2,4.6,1,9.09,2.39,12.69,6.49-5.37,3.92-11,4-16.86,2.65l-1-.17.24.75a12.57,12.57,0,0,1,1.46,2.1c.92,2.11,2.21,2.39,4.32,1.56,3.78-1.48,7.06.49,10.19,2.23,1.79,1,3.26,2.58,5.31,4.27-4.95,2.89-9.13,1.33-13.31,0l-1-.62.41,1.19c1.57,1.23,3.18,2.41,4.71,3.69,3.77,3.15,7.41,6.47,11.27,9.51,4.87,3.86,9.83,7.72,16.89,6.29-1.73,3.59-7.59,5.24-13.54,4.74-13.76-1.14-22-9.76-23.91-20.09a71.82,71.82,0,0,1-4.22,6.47c-1.69,2.1-2.49,1.88-3.68-.46-2.84-5.58-1.84-9.66,3.27-13.28a7.51,7.51,0,0,0,.8-1l-1.48-2.06c-1.8,2.48-3.3,4.92-5.17,7s-3,1.78-3.92-.73a18.42,18.42,0,0,1-.86-4.68c-.14-1.54,0-3.09,0-4.78-4.56,3.62-4.57,3.62-6.41-1.91-1.34-4-.71-7.61,3-11L237,179.36c-1.1,4.41-2.64,8.65-6.72,11.74-3.27-4-4.72-8.16-3.29-13.11l3.15-4.35-3.25-2.31c-.2,2.22-.37,4.16-.55,6.1-1.41,2.73-2.73,5.51-4.32,8.12a2.84,2.84,0,0,1-2.51.19c-2.29-3.78-5.45-7.45-3.7-12.36.69-1.94,2-3.66,3.22-5.81l-4.08-1.36A23.14,23.14,0,0,1,212,180.6c-2.05,3.61-2.82,3.69-5.48.66-5.2-5.92-5.42-9.58-.8-17.37l-5.07-1.19a36.71,36.71,0,0,1,.93,4.6c.28,4.45-1.25,8.43-3.52,12.15-1,1.65-2.41,1.31-3.46.1-1.9-2.15-3.62-4.46-5.53-6.84-.63,2.12-1.17,4.3-1.92,6.41-.9,2.51-1.76,2.76-4,1.4-.83-.5-1.67-1-2.47-1.51a10.6,10.6,0,0,1-4-13.77l1.12-2.61-8.12,1.46-.24.65c5.65,3.71,6.52,9.33,6.41,15.29-.05,2.9-1,3.65-3.56,2.66-2.86-1.11-5.59-2.55-8.39-3.85l-1.46-1.77c-2.53-3.27-1.2-6.91-.74-10.9l-8.2,3.47,7.42,6.12c.52.43,1,.84,1.58,1.26l.73,2.41c.55,2.16,1.16,4.31,1.64,6.49s-.62,3.08-2.67,2.62c-3.92-.87-7.82-1.88-11.73-2.83l-.73-.49c-3.76-3.1-4.89-7.06-3.52-12.34l-9.34,6.22c5.38.36,9.07,3.16,12.48,6.51l.58.72c.94,2.25,1.87,4.51,2.82,6.75s-.32,3.09-2.2,3.07c-3.95-.06-7.89-.35-11.84-.54l-.93-.17.39.68c1.63,2.12,3.4,4.15,4.84,6.39s1,3.67-1.81,4c-4.2.5-8.5,1.23-12.64.78-6-.65-9.53-4.47-9.83-10.89l-.69-.17q-4.22,5.72-8.42,11.42c11.33-3.92,19.92-.71,26.94,9.65-4,1.45-7.46,3-11.1,4a29,29,0,0,1-7.61.91c-5.38,0-8.58-2.36-10.51-7.34-.18-.46-.41-.89-.93-2-2.33,5.07-4.41,9.58-6.49,14.09,4.68-3,9.8-4,15-4.18a18.46,18.46,0,0,1,14.45,5.85c-2.39,1.93-4.42,4-6.81,5.41a78.45,78.45,0,0,1-9.53,4.65c-5.22,2.26-9.79.77-13.92-2.75-.55-.47-1.11-.92-2-1.68-1.1,4.71-2.12,9.06-3.14,13.4l.7.31c1.19-1,2.4-2,3.57-3A20.83,20.83,0,0,1,122.84,243c2.68,1.77,2.74,2,.78,4.4-4,4.88-8.87,8.95-14.79,10.92-4.14,1.38-8.67.07-12.63-2.14-.8-.45-1.56-1-2.83-1.83A73.58,73.58,0,0,0,95,278.52c-.88.3-1.35.48-1.85.62s-1,.22-2,.43c-2.41-8.47-2.36-16.92-1.55-25.61a17.5,17.5,0,0,0-1.91-.2c-9.32,0-13.76-5.54-14.11-13.36-.21-4.74.67-9.54,1.15-14.31.21-2.15,1.36-2.39,3.12-1.34,5.56,3.31,10.26,7.39,12.56,13.7.24.67.58,1.3,1.2,2.66,1.26-3.84,2.3-7,3.48-10.62-1.23-.21-2.32-.4-3.42-.56-5.79-.86-8.37-3.31-9.9-9-1.35-5-.63-10,.23-14.95.36-2,.76-4,1.29-6,.74-2.75,1.56-3,3.69-1.21,6.42,5.57,11.28,12.06,11.73,21.8l6.1-11.93a28.43,28.43,0,0,1-5.22-1.39c-3.93-1.92-5.64-5.55-6.14-9.62-.89-7.23.55-14.27,2.4-21.22.55-2.1,1.73-1.93,3-.63a43.68,43.68,0,0,1,10.47,16c.89,2.53.79,5.41,1.16,8.33l6.91-8.53c-3.9-.81-6.84-2.66-8.42-6-2.18-4.65-1.87-9.66-1.2-14.53a85.63,85.63,0,0,1,2.67-10.57,33.46,33.46,0,0,1,1.29-3.12c7.9,7.83,12.57,16.27,11.61,27.16v.75l.35-.39,7.57-6.3a12.57,12.57,0,0,1-7.84-11.06,35.39,35.39,0,0,1,1-10.73c1-4.44,2.66-8.72,4-13,3.28.9,6.66,6.44,8.61,13.89,1.37,5.23,3,10.52.71,16.17l7.49-4.68c-6.44-6.23-6.06-13.53-3.17-21,1.72-4.48,3.85-8.81,5.89-13.16a7.64,7.64,0,0,1,2.5-2.72c4.31,10.58,8,21.11,2.61,32.44l-.27.66Zm90.71,26.25,3.06-2.5-2.19-2.72L243.81,191c-.38.75-.77,1.5-1.16,2.25l.82.35Zm-112.72-9.3L124,191.28c2.7-1.08,6.45.16,9.64,1.82Zm54.46-20c1,2.22,1.82,4.14,2.71,6.16l3.14-6.16Z"/><path class="cls-3" d="M386.74,420.89c5.87-1.31,11.72-1.75,17.71.79-1.3.58-2.56,1.26-3.89,1.74-6.19,2.22-12.41,3.87-19,1.67-2.44-.81-4,.14-8,4,8-.57,15.77-.74,23.1,3.76a42.6,42.6,0,0,1-6.38,2.12,71.13,71.13,0,0,1-13,1.51,15.81,15.81,0,0,1-7.66-2.68c-1.74-1.09-2.91-1.37-4.57-.28-1.48,1-3.08,1.79-4.62,3,7.49.28,14.58,1.5,21.06,7.18a7.14,7.14,0,0,1-1.51.58c-6.49.49-13,2-19.46.11-2.14-.64-3.91-2.44-5.91-3.62-.73-.43-1.74-1-2.4-.81-2.11.63-4.12,1.6-6.34,2.51,3.49,1.22,6.71,2.33,9.92,3.49,3.63,1.32,6,4.1,7.81,7.3,1,1.67.27,2.9-1.64,2.57-5.85-1-12-.48-17.43-3.8-2.86-1.74-4.07-4.19-5.34-7.2l-8.92,2.2-.18.57c1.08.47,2.19.89,3.26,1.4,5.24,2.46,9.47,5.85,10.88,11.84.68,2.89,0,3.81-2.77,3a115.67,115.67,0,0,1-13.69-4.44c-4.18-1.76-6.25-5.34-6.13-10.55l-12,2c10.57,5,13.2,10,11,21.26-2.61-1-5.22-1.79-7.61-3-2.76-1.39-5.69-2.78-7.89-4.86-4.25-4-4.41-6.6-1.77-12.65H291.2c1.86,2.07,3.76,3.65,5,5.64,3.44,5.62,1.36,11.2-.78,16.61-.24.6-2.39,1.11-3.16.71a26,26,0,0,1-11.53-10.86c-2.31-4.35-1.07-8.26,2.31-12.07l-12-.77c1.41,2.39,2.63,4.46,3.83,6.53,1.87,3.21,1.22,6.37-.25,9.5s-2.95,6.32-4.61,9.86a27.57,27.57,0,0,1-9.76-9.57,21.86,21.86,0,0,1-2.9-7c-.82-4.15,1.45-7.36,4.81-10.59l-13-2.25c2.36,4.16,4.1,8.31,2.63,12.65a116.11,116.11,0,0,1-5.91,13.32c-.17.37-2.14.46-2.6,0-4-3.92-7.84-8-9.44-13.55-1.7-5.81-.12-9.9,4.68-13.48.48-.36.94-.75,1.83-1.46l-10.89-3.19c-.19.35-.4.58-.35.68,3.61,7,.31,12.88-3.24,18.57a60.62,60.62,0,0,1-5.64,7c-1.81,2.13-2.89,2.3-4.12-.12a83.54,83.54,0,0,1-5.47-13.28c-.67-2.17-.3-4.84.2-7.16.85-3.93,3.63-6.45,7.2-8.13.75-.35,1.47-.74,2.47-1.25L211,433.12c-.27.35-.52.55-.49.67,1.36,5.64-1.94,9.69-5.09,13.46a76.93,76.93,0,0,1-10,9.45c-2.45,2.05-3.84,1.58-4.54-1.46a76.74,76.74,0,0,1-2-11.92c-.45-6.64,3.8-10.31,9.21-12.92a46.07,46.07,0,0,1,5.29-1.81l-9.4-6.8c-1.82,11.95-10.8,16.92-19.82,21.84-1.83,1-2.71.38-3.12-1.61-1.08-5.31-1.64-10.57.37-15.8s6.28-7.93,11.61-9.05c1.43-.31,2.91-.4,5-.67l-7.93-8.76c-.77,2.2-1,4.32-2.13,5.82a28.3,28.3,0,0,1-6.23,6.41c-4.29,3-8.9,5.56-13.45,8.16-1.7,1-3.29.75-3.21-1.73.16-4.77-.1-9.65.83-14.28,1.32-6.65,8.33-11.05,16-10.93,1,0,2,0,3.39,0l-5.07-10.33c3.91-1.27,3.85-1.25,5.31,2.05.67,1.52,1.6,2.93,2.53,4.61a47.44,47.44,0,0,1,4.32-3.87c3.19-2.21,6.82-2.76,10.69-2.85,8.21-.21,15.85,2.19,23.49,4.67a12,12,0,0,1,2.06,1.22c-5.37,4.69-11.66,6.37-18.16,7.09s-13,.48-19.15-2.68l-.58,1L190,413.49c1.24-1.85,1.82-3.55,3-4.36a29.74,29.74,0,0,1,7.79-4c8.25-2.45,16.35-.21,24.43,1.43.36.08.65.49,1.56,1.2-9.6,8-20.12,11.08-32.53,9.53l11,9c.6-1.33,1.19-2.06,1.23-2.81a7,7,0,0,1,5.9-6.76,78.45,78.45,0,0,1,13.95-1.5,41.77,41.77,0,0,1,10.07,1.26c-6,9.59-15.24,11.75-25.67,12.39l10.65,5.82c1.27-2.64,1.79-5.92,3.65-7.08a31.59,31.59,0,0,1,11-3.87c4-.7,8.11-.41,12.18-.5a11,11,0,0,1,2.12.35c-.89,6.81-8.62,12.15-20.16,14.55l11.47,4c.58-7.89,2.83-10.42,10.35-11.91,2.84-.56,5.72-.93,8.59-1.26,3.08-.34,3.63.37,2.81,3.46a18.74,18.74,0,0,1-1,2.71c-.31.73-.73,1.42-1,2,3.89-1.67,7.66-3.47,11.57-4.88,1.55-.55,4.71-.72,4.91-.2a14.26,14.26,0,0,1,1.11,7.21,10,10,0,0,1-6.09,7.84l.37.69,9.08.71c-.89-1.28-1.55-2.08-2.06-3-1.43-2.48-1.18-5.34,1.08-7a72.23,72.23,0,0,1,8.54-5c2.13-1.14,3.51-.31,4.57,1.88,2.14,4.41,2.49,8.56-1.33,12.47l.44.66,7.55-.55c-.87-1.2-1.34-1.87-1.81-2.53-1.9-2.66-1.91-5.78.56-7.8a54.67,54.67,0,0,1,8.61-5.54c.74-.39,2.56.18,3.24.9,2.95,3.15,3.49,7,2.49,11.1-.17.71-.48,1.39-.93,2.63l6.43-.65c.3-.44.61-.88.91-1.33a9.93,9.93,0,0,1-2.78-1.47,4.94,4.94,0,0,1,.32-7.41c1.8-1.67,3.73-3.22,5.62-4.8,1.64-1.36,3.07-1,4.49.48,3.16,3.31,3.63,7.12,2.09,11.93L336,442c-1.07-1.9-2.43-3.48-2.86-5.29-.69-2.91,3.71-8.72,6.72-9.2a3.29,3.29,0,0,1,2.21.91c2.65,2.25,4,5.33,4.27,9.76l3.41-1.61c-3.54-4.9-2.75-9.27,2.22-12.58a2.71,2.71,0,0,1,2.57,0,25.29,25.29,0,0,1,3.65,4.7,14.59,14.59,0,0,1,1,3.63l3.89-1.94a18.13,18.13,0,0,1-3-2.57c-2.16-2.95-.64-9.15,2.72-10.71a3.91,3.91,0,0,1,3.48.45,84,84,0,0,1,5.89,6.79l3.19-1.89c-1.55-.85-2.55-1.36-3.5-1.94-2.44-1.48-3.14-3.46-1.92-6s2.52-5.66,5.67-5.38,4.44,3.3,5.18,6.23c.1.4.24.78.53,1.72,6.13-9.42,15.2-13.24,25.34-14.92s19.93-1.29,30.19,3c-1.07.5-1.43.83-1.71.78-7.62-1.36-14.7.9-21.67,3.39-8.36,3-16.63,6.25-24.91,9.44a16.45,16.45,0,0,0-2.46,1.49l-.27.72ZM262,446.44c-.25-3.3-.44-5.93-.62-8.21l-10.14,6.28Z"/><path class="cls-4" d="M183.34,285.88c-1.66,7.71-3.22,15.34-4.93,22.93-2.55,11.27-4.59,22.7-8,33.71-3.33,10.75-9.68,19.91-19.94,25.46-7.76,4.19-16,7.57-25,7.66-12.85.12-24.1-4.13-32.2-14.44a23.72,23.72,0,0,1-4.17-10.57c-1.18-7.41,4.17-14,12.14-15.63,8.19-1.64,15.1,1,20.34,7.37,2.85,3.46,4.19,7.68,1.93,12s-6.2,5.43-10.68,5a8.68,8.68,0,0,1-7.54-5.71c-.68-1.63-1-3.56,1.07-4.44s3.52.29,4.31,2.2a26.51,26.51,0,0,1,.86,3.13,5.43,5.43,0,0,0,7-5.13,8.51,8.51,0,0,0-3-7.17c-3.71-3.26-10.19-3.82-14.5-1.34S95,347.33,96,353c1.25,7.19,5.89,11.76,12.17,14.77,16.79,8,40.87.74,48.51-17a118.29,118.29,0,0,0,7.17-24.6c2.63-13.63,4-27.54,9.08-41.1-3-.26-5.73-.45-8.44-.73-11-1.16-22.1-1.84-32.91,1.09a40.55,40.55,0,0,0-13,5.95c-8.15,5.93-9.89,19.7-4,27.9,3.19,4.47,7.67,7,13.19,6.68,9.32-.58,16.9-4.67,21.92-12.65a14.69,14.69,0,0,0,1.94-7.29c.1-6.39-3.8-9.16-9.93-7.36a26.29,26.29,0,0,0-12.26,7.93c-1.28,1.43-2.24,3.15-3.54,4.56-.54.59-2,1.23-2.3,1a5.87,5.87,0,0,1-1.36-2.61c-.11-.32.17-.84.37-1.21,3.12-5.61,7-10.61,12.71-13.75,4.8-2.63,10.08-3.8,15-.57,5.47,3.62,6.92,9.36,6.15,15.6-1.45,11.82-13.78,23.24-25.63,24-9.28.57-18.58-5.9-21.89-15.82-5-14.89-1.88-32.45,17.32-40.76,10.8-4.68,22.18-5.46,33.72-5.09,6,.19,12,.79,18,1a8,8,0,0,0,3.95-1.39c2.83-1.69,5.5-3.66,8.35-5.31.59-.34,1.68.19,2.55.32a11.13,11.13,0,0,1-.71,2.18c-.76,1.38-1.66,2.68-2.73,4.37a11.23,11.23,0,0,0,1.83.36c9.64-.08,19.28-.07,28.47-3.68.86-.34,2.73-.34,2.82-.07.36,1.12.74,2.84.16,3.54-2.18,2.58-4.43,5.29-7.2,7.14-6.75,4.51-14.61,5.25-22.48,5.55C190,286,187.09,285.88,183.34,285.88Z"/><path class="cls-3" d="M524.61,230.16c-1.07-9.82.76-19.59,4.2-29.07a63.69,63.69,0,0,1,6.53-13c4-6.08,9.08-11.09,14-16.25,1.92-2,4.75-3.09,6.9-4.92,2.51-2.14,4.73-4.63,7.28-7.18-33.85-17.41-50.68-45.25-53.39-82.12,2.83,16.44,8.43,31.81,19.54,44.59,16.65,19.15,27.87,24.06,39,28.28a45,45,0,0,0,5-20.25c.28-9.8-2.21-19-6-27.94-3.63-8.6-9-16.09-15-23.07A57.75,57.75,0,0,0,527.19,61.6a47.33,47.33,0,0,0-31-.22c-5,1.68-9.64,4.19-14.58,6a68.62,68.62,0,0,1-38.05,2.42c-7.11-1.49-13.34-4.74-19.84-7.53a3,3,0,0,1-1.46-1.66c1.06.42,2.14.8,3.18,1.26a59.76,59.76,0,0,0,29.35,5.08c7.78-.6,15.56-1.87,22.68-5.5,4.28-2.18,8.38-4.81,12.86-6.44A112.81,112.81,0,0,1,505.73,51c10.19-2.14,20-.16,29.2,4.11,10,4.64,17.86,12.13,24.82,20.67a112.06,112.06,0,0,1,18.82,32.32c5.11,14,5.93,28.26-.27,42.41-3.13,7.15-7.21,13.59-13.06,18.72-4.36,3.82-9.32,7-13.63,10.82s-8.5,8.39-12.54,12.78a56.77,56.77,0,0,0-4.49,6.29C528.07,208.59,525.89,219.41,524.61,230.16Z"/><path class="cls-4" d="M388.48,305.51c-1.16,2.8-2,5.77-3.61,8.31a5.34,5.34,0,0,1-4.28,1.83c-1-.07-2.48-1.78-2.77-3a15,15,0,0,1,2.59-13c2.26-3,5.52-2.37,6.78,1.23a28.49,28.49,0,0,1,.86,4.34Z"/><path class="cls-3" d="M525,274.39H523.7q.4-6.06.83-12.12l.42,0Z"/><path class="cls-3" d="M382.53,43.36c0-.42,0-.84.05-1.26l9.29,4.52-.37.81Z"/><path class="cls-1" d="M354.88,224.07l-6.92,10c-.95-4.32-1.79-8.16-2.61-11.92Z"/><path class="cls-1" d="M352.57,204.55a13.93,13.93,0,0,0,10.57.83l.64.59-4.19,9.45-1,0c-1-4.27-2.83-7.9-6.65-10.15Z"/><path class="cls-1" d="M369.69,188.22c-.79,2.57-1.58,5.14-2.27,7.4L358,188.91a12.48,12.48,0,0,0,11.26-1.24Z"/><path class="cls-1" d="M343.76,220.45c-.13-.27-.26-.55-.38-.82l.74.47Z"/><path class="cls-1" d="M363.39,217.83l-.47.34,0-.8Z"/><path class="cls-1" d="M344.25,221.35l-.49-.9.36-.35.6.7Z"/><path class="cls-1" d="M344.72,220.8l.51.68-1-.13Z"/><path class="cls-1" d="M445.79,370c-.56-1.44-1.33-2.55-1.38-3.69-.65-14.75,2.78-28.21,13.1-39.27,1.25-1.35,3.59-2.87,5.05-2.56,2.54.54,2.14,3.46,1.88,5.49-1.8,14.12-5.65,27.41-16,37.91A33.66,33.66,0,0,1,445.79,370Z"/><path class="cls-1" d="M285,370.12c-.47-2.48-1.21-4.5-1.18-6.5.26-13.05,3.4-25.17,12.06-35.36a17.83,17.83,0,0,1,3.84-3.36c2.26-1.45,3.89-.69,4.28,2a15.6,15.6,0,0,1,0,5.41c-1.8,8.12-2.89,16.52-7.4,23.73-2.7,4.32-6,8.27-9.1,12.34A12.16,12.16,0,0,1,285,370.12Z"/><path class="cls-1" d="M331.22,370.13c-.52-2.54-1.32-4.56-1.26-6.55.36-12.35,3.05-24,10.92-33.94a25.45,25.45,0,0,1,5.12-4.82c2-1.41,3.4-.72,4,1.62a6.28,6.28,0,0,1,.3,2.86c-1.89,8.31-2.13,17.14-6.53,24.7-2.89,5-6.51,9.5-9.87,14.18C333.48,368.81,332.62,369.15,331.22,370.13Z"/><path class="cls-1" d="M189.08,342.83c1.81-4.87,3.47-9.81,5.49-14.6,1.28-3.05,4-4.6,5.92-3.92s2.91,3.21,1.71,6.52a21.88,21.88,0,0,1-4.86,7.66c-2,2.08-4.9,3.36-7.4,5Z"/><path class="cls-3" d="M419.32,328.17l.84-1.4.44.2-.48,1.44Z"/><path class="cls-1" d="M419.32,328.17l.8.24-.38,1-.63-.5Z"/><path class="cls-1" d="M131.57,182.14l2,11c-3.19-1.66-6.94-2.9-9.64-1.82Z"/><path class="cls-1" d="M149.31,185.61c-3.41-3.35-7.1-6.15-12.48-6.51l9.34-6.22c-1.37,5.28-.24,9.24,3.52,12.34C149.57,185.35,149.44,185.49,149.31,185.61Z"/><path class="cls-1" d="M162.45,177c-.53-.42-1.06-.83-1.58-1.26l-7.42-6.12,8.2-3.47c-.46,4-1.79,7.63.74,10.9Z"/><path class="cls-1" d="M186,162.1h5.85l-3.14,6.16C187.85,166.24,187,164.32,186,162.1Z"/><path class="cls-1" d="M226.31,177.43c.18-1.94.35-3.88.55-6.1l3.25,2.31L227,178Z"/><path class="cls-1" d="M243.81,191l1.35-4.79,2.19,2.72-3.06,2.5Z"/><path class="cls-1" d="M244.29,191.44l-.82,2.17-.82-.35c.39-.75.78-1.5,1.16-2.25Z"/><path class="cls-1" d="M163.18,179.43l-.73-2.41-.06,0,1.46,1.77Z"/><path class="cls-1" d="M262.68,203l-.41-1.19,1,.62Z"/><path class="cls-1" d="M255.25,192.27l-.24-.75,1,.17Z"/><path class="cls-1" d="M149.69,185.22l.73.49-.53.62-.58-.72C149.44,185.49,149.57,185.35,149.69,185.22Z"/><path class="cls-1" d="M123.7,184.89l-.35.39v-.75C123.48,184.65,123.59,184.76,123.7,184.89Z"/><path class="cls-1" d="M138.13,196.12l-.39-.68.93.17Z"/><path class="cls-1" d="M153.58,165.19l-.77.15.27-.66Z"/><path class="cls-1" d="M262,446.44l-10.76-1.93,10.14-6.28C261.52,440.51,261.71,443.14,262,446.44Z"/><path class="cls-1" d="M386.74,420.89l-1,.08.27-.72Z"/></g></g></svg>